{"title":"Cinema Dekhe Mamma Video Song Singh Is Bliing Team truHD HEVC","uid":12411675,"size":50493241,"categoryP":"video","categoryS":"music_videos","magnet":"?xt=urn:btih:e3c5438d7d9194d973109a487c9c9c616e159eb0&amp;dn=Cinema+Dekhe+Mamma+Video+Song+Singh+Is+Bliing+Team+truHD+HEVC&amp;tr=udp%3A%2F%2Ftracker.openbittorrent.com%3A80&amp;tr=udp%3A%2F%2Fopen.demonii.com%3A1337&amp;tr=udp%3A%2F%2Ftracker.coppersurfer.tk%3A6969&amp;tr=udp%3A%2F%2Fexodus.desync.com%3A6969","seeders":0,"leechers":1,"uploader":"Aainul","files":5,"time":1442157724,"description":"Cinema Dekhe Mamma Video Song Singh Is Bliing  - Full HD 1080p - Team truHD HEVC \n\n\n\nTeam truHD HEVC Presents  \n\nSource: WEB-DL \n\nEncoder: truHD HEVC Encoding Team \n\nEncoded File Info: \n\nGeneral \n\nFormat : MPEG-4 \nFormat profile : Base Media \nCodec ID : iso4 \nFile size : 36.6 MiB \nDuration : 2mn 22s \nOverall bit rate : 2 156 Kbps \nEncoded date : UTC 2015-09-12 11:10:00 \nTagged date : UTC 2015-09-12 11:10:00 \n\nVideo \nID : 1 \nFormat : HEVC \nFormat/Info : High Efficiency Video Coding \nCodec ID : hvc1 \nCodec ID/Info : High Efficiency Video Coding \nDuration : 2mn 22s \nBit rate : 1 962 Kbps \nMaximum bit rate : 5 805 Kbps \nWidth : 1 920 pixels \nHeight : 1 080 pixels \nDisplay aspect ratio : 16:9 \nFrame rate mode : Constant \nFrame rate : 25.000 fps \nBits/(Pixel*Frame) : 0.038 \nStream size : 33.2 MiB (91%) \nTitle : Video \nEncoded date : UTC 2015-09-12 11:10:00 \nTagged date : UTC 2015-09-12 11:10:02 \n\nAudio \nID : 2 \nFormat : AC-3 \nFormat/Info : Audio Coding 3 \nMode extension : CM (complete main) \nFormat settings, Endianness : Big \nCodec ID : ac-3 \nDuration : 2mn 22s \nBit rate mode : Constant \nBit rate : 192 Kbps \nMaximum bit rate : 201 Kbps \nChannel(s) : 6 channels \nChannel positions : Front: L C R, Side: L R, LFE \nSampling rate : 44.1 KHz \nBit depth : 16 bits \nCompression mode : Lossy \nStream size : 3.25 MiB (9%) \nTitle : Team truHD truAudio \nEncoded date : UTC 2015-09-12 11:10:01 \nTagged date : UTC 2015-09-12 11:10:02 \n\n\nScreenShots: \n &lt;a href=&quot;\nhttp://i.imgur.com/elTVklm.jpg&quot; rel=&quot;nofollow&quot; target=&quot;_NEW&quot;&gt;\nhttp://i.imgur.com/elTVklm.jpg&lt;/a&gt;\n\n\n\nLike Us On FB And Request Accepted\n\nKickAssTorrents:      &lt;a href=&quot;\nhttps://kat.cr/user/Aainul/&quot; rel=&quot;nofollow&quot; target=&quot;_NEW&quot;&gt;\nhttps://kat.cr/user/Aainul/&lt;/a&gt;\nGloTorrents:      &lt;a href=&quot;\nhttps://glodls.to/user/Aainul&quot; rel=&quot;nofollow&quot; target=&quot;_NEW&quot;&gt;\nhttps://glodls.to/user/Aainul&lt;/a&gt;\nThePirateBay:      &lt;a href=&quot;\nhttps://thepiratebay.vg/user/Aainul/&quot; rel=&quot;nofollow&quot; target=&quot;_NEW&quot;&gt;\nhttps://thepiratebay.vg/user/Aainul/&lt;/a&gt;\n1337x Torrents:      &lt;a href=&quot;\nhttp://1337.to/user/Aainul/&quot; rel=&quot;nofollow&quot; target=&quot;_NEW&quot;&gt;\nhttp://1337.to/user/Aainul/&lt;/a&gt;\n\n\nNote: All Videos Uploaded By Me Are For Review Purpose. If You Like IT, Google IT And Buy IT - Thanks\n\n\nKing Regards\ntruHD HEVC Team\n\nShare Among Friends And Relatives","torrent":{"xt":"urn:btih:e3c5438d7d9194d973109a487c9c9c616e159eb0","amp;dn":"Cinema+Dekhe+Mamma+Video+Song+Singh+Is+Bliing+Team+truHD+HEVC","amp;tr":["udp%3A%2F%2Ftracker.openbittorrent.com%3A80","udp%3A%2F%2Fopen.demonii.com%3A1337","udp%3A%2F%2Ftracker.coppersurfer.tk%3A6969","udp%3A%2F%2Fexodus.desync.com%3A6969"],"infoHash":"e3c5438d7d9194d973109a487c9c9c616e159eb0","infoHashBuffer":{"type":"Buffer","data":[227,197,67,141,125,145,148,217,115,16,154,72,124,156,156,97,110,21,158,176]},"announce":[],"urlList":[]}}